<svg width="16" height="9" viewBox="0 0 16 9" fill="none" xmlns="http://www.w3.org/2000/svg">
<g opacity="0.5">
<path d="M8.00483 8.66375C7.84105 8.66361 7.68403 8.59843 7.5683 8.48255L0.196613 1.06968C0.13592 1.01313 0.0872407 0.944931 0.0534776 0.869156C0.0197145 0.79338 0.00155959 0.71158 9.61376e-05 0.628636C-0.00136731 0.545692 0.0138905 0.463303 0.0449595 0.386384C0.0760285 0.309465 0.122272 0.239591 0.180932 0.180932C0.239591 0.122272 0.309465 0.0760287 0.386384 0.0449597C0.463303 0.0138907 0.545692 -0.00136731 0.628636 9.61365e-05C0.711581 0.00155959 0.79338 0.0197145 0.869156 0.0534776C0.944931 0.0872407 1.01313 0.13592 1.06968 0.196613L8.04601 7.16471L15.0635 0.147194C15.1839 0.0746971 15.3254 0.0453966 15.4646 0.0641266C15.6039 0.0828566 15.7326 0.148498 15.8295 0.25022C15.9264 0.351942 15.9858 0.483666 15.9977 0.623659C16.0097 0.763652 15.9736 0.903548 15.8954 1.02026L8.44137 8.47431C8.38474 8.53318 8.317 8.58024 8.24207 8.61275C8.16714 8.64527 8.0865 8.66261 8.00483 8.66375Z" fill="black"/>
</g>
</svg>
