<svg width="1598" height="1016" viewBox="0 0 1598 1016" fill="none" xmlns="http://www.w3.org/2000/svg">
<path fill-rule="evenodd" clip-rule="evenodd" d="M947.418 467.702C1031.89 410.051 1118.6 374.832 1214.42 383.276C1347.04 394.919 1442.68 495.087 1505.2 592.471C1536.45 641.152 1559.4 689.107 1574.54 724.893C1582.11 742.785 1587.73 757.634 1591.46 768.009C1593.32 773.196 1594.71 777.265 1595.63 780.036C1596.09 781.421 1596.44 782.482 1596.66 783.197C1596.78 783.554 1596.87 783.824 1596.92 784.005C1596.95 784.096 1596.97 784.164 1596.99 784.209L1597.01 784.273C1597.01 784.276 1597.01 784.277 1597.49 784.129C1597.96 783.98 1597.96 783.979 1597.96 783.976L1597.94 783.91C1597.93 783.864 1597.91 783.795 1597.88 783.704C1597.82 783.521 1597.73 783.249 1597.62 782.891C1597.39 782.173 1597.04 781.109 1596.58 779.72C1595.65 776.942 1594.26 772.866 1592.4 767.671C1588.67 757.281 1583.04 742.415 1575.46 724.503C1560.31 688.681 1537.33 640.673 1506.04 591.931C1443.47 494.472 1347.6 393.965 1214.51 382.279C1118.36 373.807 1031.42 409.157 946.854 466.876C872.092 517.902 799.135 586.443 723.277 657.711C713.336 667.05 703.345 676.436 693.294 685.836C519.749 848.132 328.143 1014.5 63.5731 1014.5V1015.5C328.584 1015.5 520.456 848.84 693.977 686.567C704.03 677.165 714.021 667.779 723.961 658.44C799.829 587.164 872.725 518.681 947.418 467.702Z" fill="black" fill-opacity="0.06"/>
<path fill-rule="evenodd" clip-rule="evenodd" d="M917.253 421.13C996.19 358.026 1078.53 317.478 1173.43 320.919C1314.85 326.018 1420.37 430.481 1490.59 533.853C1525.69 585.523 1551.93 636.877 1569.41 675.317C1578.14 694.535 1584.69 710.523 1589.04 721.705C1591.22 727.296 1592.86 731.685 1593.94 734.675C1594.49 736.171 1594.89 737.316 1595.17 738.087C1595.3 738.473 1595.4 738.765 1595.47 738.96C1595.5 739.058 1595.53 739.132 1595.55 739.181L1595.57 739.249C1595.57 739.252 1595.57 739.254 1596.2 739.039C1596.83 738.825 1596.83 738.823 1596.83 738.819L1596.82 738.805L1596.8 738.749C1596.79 738.699 1596.76 738.624 1596.73 738.525C1596.66 738.328 1596.56 738.034 1596.42 737.646C1596.15 736.871 1595.74 735.721 1595.19 734.221C1594.1 731.222 1592.47 726.823 1590.28 721.222C1585.92 710.021 1579.37 694.01 1570.62 674.766C1553.12 636.28 1526.84 584.855 1491.69 533.106C1421.41 429.642 1315.56 324.712 1173.48 319.59C1078.13 316.132 995.486 356.885 916.423 420.091C850.399 472.872 786.812 541.362 720.373 612.924C707.266 627.042 694.048 641.279 680.678 655.539C518.346 828.679 333.563 1005.25 53.1168 1012.89L53.153 1014.22C334.201 1006.56 519.322 829.584 681.649 656.449C695.03 642.176 708.256 627.931 721.368 613.808C787.808 542.245 851.314 473.844 917.253 421.13Z" fill="black" fill-opacity="0.06"/>
<path fill-rule="evenodd" clip-rule="evenodd" d="M1594.13 694.233C1594.13 694.236 1594.13 694.237 1594.91 693.95C1595.7 693.663 1595.7 693.662 1595.7 693.658L1595.69 693.642L1595.67 693.581C1595.65 693.528 1595.62 693.447 1595.58 693.341C1595.5 693.128 1595.38 692.811 1595.22 692.394C1594.91 691.559 1594.44 690.321 1593.81 688.707C1592.56 685.48 1590.68 680.75 1588.18 674.732C1583.19 662.697 1575.72 645.51 1565.81 624.9C1546 583.682 1516.43 528.758 1477.44 473.946C1399.48 364.368 1283.65 255.01 1132.47 256.897C1037.98 258.084 959.678 304.068 886.144 372.697C828.084 426.885 772.925 495.264 715.086 566.967C699.691 586.051 684.107 605.371 668.228 624.721C517.086 808.897 339.046 996.047 42.6825 1011.31L42.7684 1012.98C339.907 997.675 518.353 809.984 669.519 625.78C685.423 606.399 701.024 587.059 716.429 567.963C774.258 496.273 829.318 428.017 887.284 373.918C960.668 305.427 1038.59 259.747 1132.49 258.567C1282.8 256.691 1398.19 365.442 1476.08 474.914C1515 529.627 1544.52 584.463 1564.3 625.624C1574.2 646.203 1581.65 663.361 1586.64 675.372C1589.13 681.378 1591 686.096 1592.26 689.313C1592.88 690.921 1593.35 692.153 1593.66 692.983C1593.82 693.398 1593.94 693.712 1594.01 693.922C1594.05 694.027 1594.08 694.106 1594.1 694.159L1594.13 694.233Z" fill="black" fill-opacity="0.06"/>
<path fill-rule="evenodd" clip-rule="evenodd" d="M1592.7 649.249C1592.7 649.252 1592.7 649.254 1593.63 648.893C1594.56 648.532 1594.56 648.53 1594.56 648.526L1594.53 648.444C1594.51 648.386 1594.47 648.3 1594.43 648.185C1594.34 647.957 1594.2 647.617 1594.03 647.169C1593.67 646.272 1593.13 644.944 1592.43 643.213C1591.01 639.751 1588.88 634.679 1586.07 628.231C1580.44 615.336 1572.05 596.94 1560.98 574.924C1538.84 530.896 1505.99 472.38 1463.14 414.445C1377.49 298.633 1251.67 184.851 1091.42 194.274C997.787 199.783 923.824 250.839 855.825 324.825C804.957 380.171 757.34 448.45 707.284 520.227C690.451 544.364 673.342 568.896 655.741 593.466C515.791 788.823 344.492 986.869 32.2141 1009.77L32.3604 1011.76C345.592 988.793 517.362 790.065 657.367 594.631C675.009 570.004 692.143 545.435 708.991 521.277C759.024 449.534 806.529 381.417 857.297 326.179C925.134 252.37 998.646 201.736 1091.54 196.27C1250.71 186.911 1375.97 299.94 1461.53 415.634C1504.29 473.451 1537.09 531.862 1559.19 575.823C1570.25 597.802 1578.62 616.165 1584.24 629.031C1587.04 635.464 1589.16 640.523 1590.57 643.972C1591.28 645.696 1591.81 647.018 1592.17 647.908C1592.34 648.353 1592.48 648.69 1592.57 648.916C1592.61 649.029 1592.64 649.113 1592.66 649.17L1592.7 649.249Z" fill="black" fill-opacity="0.06"/>
<path fill-rule="evenodd" clip-rule="evenodd" d="M1591.26 604.234C1591.26 604.237 1591.26 604.239 1592.34 603.803C1593.42 603.366 1593.42 603.364 1593.42 603.36L1593.39 603.272C1593.36 603.209 1593.32 603.117 1593.27 602.995C1593.17 602.75 1593.02 602.386 1592.82 601.906C1592.42 600.947 1591.83 599.525 1591.04 597.674C1589.46 593.971 1587.09 588.547 1583.96 581.658C1577.71 567.881 1568.4 548.242 1556.17 524.786C1531.72 477.876 1495.59 415.683 1448.9 354.567C1355.56 232.408 1219.72 114.199 1050.26 131.62C957.466 141.168 887.85 197.167 825.394 276.458C781.023 332.789 740.169 401.01 697.149 472.848C679.644 502.078 661.781 531.907 643.177 561.778C514.447 768.462 349.925 977.693 21.7697 1008.23L21.9857 1010.55C351.284 979.906 516.336 769.835 645.155 563.01C663.816 533.047 681.712 503.164 699.233 473.905C742.218 402.126 782.951 334.107 827.224 277.9C889.512 198.823 958.616 143.392 1050.5 133.938C1218.67 116.649 1353.81 233.951 1447.05 355.982C1493.64 416.96 1529.7 479.031 1554.11 525.863C1566.31 549.276 1575.6 568.877 1581.84 582.621C1584.96 589.493 1587.32 594.901 1588.89 598.589C1589.68 600.433 1590.28 601.847 1590.67 602.8C1590.87 603.276 1591.02 603.637 1591.12 603.878C1591.17 603.998 1591.2 604.089 1591.23 604.149L1591.26 604.234Z" fill="black" fill-opacity="0.06"/>
<path fill-rule="evenodd" clip-rule="evenodd" d="M1589.83 559.225C1589.83 559.228 1589.83 559.23 1591.06 558.714C1592.29 558.198 1592.29 558.196 1592.29 558.191L1592.25 558.097C1592.22 558.031 1592.18 557.932 1592.12 557.801C1592.01 557.54 1591.85 557.151 1591.63 556.639C1591.18 555.615 1590.53 554.098 1589.65 552.122C1587.9 548.171 1585.3 542.386 1581.85 535.043C1574.96 520.359 1564.72 499.443 1551.33 474.508C1524.54 424.642 1485.11 358.68 1434.56 294.323C1333.52 165.696 1187.7 43.0513 1009.28 68.9676C917.236 82.3738 851.92 143.236 794.978 227.792C756.459 284.991 721.666 353.207 684.991 425.111C667.485 459.433 649.55 494.596 630.577 529.802C513.054 747.875 355.333 968.424 11.2928 1006.49L11.5865 1009.15C356.976 970.928 515.285 749.363 632.928 531.069C651.974 495.726 669.946 460.491 687.468 426.135C724.097 354.319 758.765 286.348 797.193 229.283C853.968 144.975 918.72 84.8558 1009.66 71.6098C1186.56 45.9152 1331.53 167.483 1432.46 295.972C1482.89 360.172 1522.23 425.994 1548.98 475.772C1562.35 500.659 1572.56 521.53 1579.43 536.177C1582.87 543.501 1585.47 549.268 1587.21 553.202C1588.08 555.169 1588.74 556.678 1589.17 557.694C1589.39 558.202 1589.56 558.587 1589.66 558.845C1589.72 558.973 1589.76 559.07 1589.79 559.135L1589.83 559.225Z" fill="black" fill-opacity="0.06"/>
<path fill-rule="evenodd" clip-rule="evenodd" d="M1588.39 514.213C1588.4 514.217 1588.4 514.219 1589.77 513.624C1591.15 513.03 1591.15 513.027 1591.15 513.022L1591.1 512.922C1591.07 512.851 1591.03 512.746 1590.97 512.607C1590.84 512.328 1590.66 511.914 1590.42 511.368C1589.94 510.278 1589.21 508.662 1588.26 506.559C1586.34 502.353 1583.49 496.196 1579.72 488.388C1572.19 472.772 1561.01 450.546 1546.44 424.094C1517.29 371.196 1474.53 301.375 1420.1 233.718C1311.32 98.5078 1155.49 -28.5685 968.19 6.35336C876.848 23.383 815.823 88.9982 764.4 178.771C731.172 236.781 701.839 305.101 670.901 377.16C653.998 416.528 636.617 457.012 617.859 497.54C564.712 612.37 500.427 727.807 404.454 820.264C308.513 912.691 180.842 982.213 0.810669 1005.11L1.18921 1008.08C181.861 985.107 310.129 915.3 406.535 822.425C502.911 729.58 567.384 613.74 620.582 498.8C639.427 458.082 656.846 417.508 673.762 378.105C704.646 306.168 733.853 238.136 767.004 180.262C818.271 90.761 878.697 26.0899 968.74 9.30253C1154.28 -25.2909 1309.1 100.531 1417.76 235.598C1472.05 303.079 1514.72 372.742 1543.81 425.542C1558.36 451.94 1569.51 474.117 1577.02 489.691C1580.77 497.479 1583.62 503.615 1585.53 507.802C1586.48 509.896 1587.2 511.502 1587.68 512.584C1587.92 513.125 1588.1 513.535 1588.22 513.809C1588.28 513.946 1588.32 514.049 1588.35 514.118L1588.39 514.213Z" fill="black" fill-opacity="0.06"/>
</svg>
